<svg width="850" height="200" viewBox="0 0 850 200" xmlns="http://www.w3.org/2000/svg">
  <style>
    @keyframes twinkle1 { 0%,100%{opacity:.2} 50%{opacity:1} }
    @keyframes twinkle2 { 0%,100%{opacity:.6} 50%{opacity:.1} }
    @keyframes swim-right { from{transform:translateX(-80px)} to{transform:translateX(930px)} }
    @keyframes swim-left { from{transform:translateX(930px)} to{transform:translateX(-80px)} }
    @keyframes pulse { 0%,100%{opacity:.08} 50%{opacity:.25} }
    @keyframes float { 0%,100%{transform:translateY(0)} 50%{transform:translateY(-4px)} }
    @keyframes glow { 0%,100%{opacity:.5} 50%{opacity:.9} }

    .tw-a { animation: twinkle1 3s ease-in-out infinite }
    .tw-b { animation: twinkle2 4s ease-in-out infinite }
    .fish-r { animation: swim-right 16s linear infinite }
    .fish-l { animation: swim-left 22s linear infinite }
    .slash { animation: pulse 5s ease-in-out infinite }
    .sword { animation: float 3s ease-in-out infinite }
    .line-glow { animation: glow 4s ease-in-out infinite }
  </style>

  <!-- background -->
  <rect width="850" height="200" fill="#0D1117"/>

  <!-- dot grid -->
  <defs>
    <pattern id="grid" width="25" height="25" patternUnits="userSpaceOnUse">
      <circle cx="12.5" cy="12.5" r=".4" fill="#E4E2E2" opacity=".06"/>
    </pattern>
  </defs>
  <rect width="850" height="200" fill="url(#grid)"/>

  <!-- stars -->
  <circle cx="40"  cy="22"  r="1"   fill="#E4E2E2" class="tw-a"/>
  <circle cx="130" cy="65"  r="1.3" fill="#DC143C" class="tw-b" style="animation-delay:.5s"/>
  <circle cx="210" cy="38"  r=".8"  fill="#E4E2E2" class="tw-a" style="animation-delay:1s"/>
  <circle cx="320" cy="12"  r="1"   fill="#E4E2E2" class="tw-b" style="animation-delay:1.5s"/>
  <circle cx="490" cy="30"  r="1.2" fill="#DC143C" class="tw-a" style="animation-delay:2s"/>
  <circle cx="590" cy="18"  r=".8"  fill="#E4E2E2" class="tw-b" style="animation-delay:.8s"/>
  <circle cx="710" cy="50"  r="1"   fill="#E4E2E2" class="tw-a" style="animation-delay:2.5s"/>
  <circle cx="790" cy="28"  r="1.4" fill="#DC143C" class="tw-b" style="animation-delay:1.2s"/>
  <circle cx="85"  cy="165" r=".8"  fill="#E4E2E2" class="tw-a" style="animation-delay:1.8s"/>
  <circle cx="260" cy="178" r="1"   fill="#DC143C" class="tw-b" style="animation-delay:.3s"/>
  <circle cx="660" cy="168" r="1"   fill="#E4E2E2" class="tw-a" style="animation-delay:2.2s"/>
  <circle cx="810" cy="155" r=".8"  fill="#E4E2E2" class="tw-b" style="animation-delay:1.7s"/>
  <circle cx="380" cy="175" r=".9"  fill="#DC143C" class="tw-a" style="animation-delay:.6s"/>
  <circle cx="540" cy="160" r="1.1" fill="#E4E2E2" class="tw-b" style="animation-delay:1.1s"/>

  <!-- tessaiga wind scar — right cluster -->
  <g class="slash">
    <line x1="630" y1="5"  x2="730" y2="195" stroke="#DC143C" stroke-width="1.5"/>
    <line x1="650" y1="5"  x2="750" y2="195" stroke="#DC143C" stroke-width="2.5" opacity=".7"/>
    <line x1="670" y1="5"  x2="770" y2="195" stroke="#DC143C" stroke-width="1"/>
  </g>

  <!-- wind scar — left cluster (fainter) -->
  <g class="slash" style="animation-delay:2.5s">
    <line x1="75"  y1="5"  x2="175" y2="195" stroke="#DC143C" stroke-width="1"   opacity=".6"/>
    <line x1="95"  y1="5"  x2="195" y2="195" stroke="#DC143C" stroke-width="1.8" opacity=".4"/>
  </g>

  <!-- fish swimming right (large, lower) -->
  <g class="fish-r" style="animation-delay:-2s">
    <ellipse cx="0" cy="158" rx="13" ry="6.5" fill="#DC143C" opacity=".35"/>
    <polygon points="-13,158 -22,151 -22,165" fill="#DC143C" opacity=".35"/>
    <circle cx="7" cy="156" r="1.8" fill="#0D1117" opacity=".6"/>
    <circle cx="7.8" cy="155.6" r=".8" fill="#E4E2E2" opacity=".8"/>
  </g>

  <!-- fish swimming left (small, upper) -->
  <g class="fish-l" style="animation-delay:-7s">
    <ellipse cx="0" cy="42" rx="9" ry="4.5" fill="#DC143C" opacity=".2"/>
    <polygon points="9,42 17,37 17,47" fill="#DC143C" opacity=".2"/>
    <circle cx="-5" cy="40.5" r="1.3" fill="#0D1117" opacity=".4"/>
    <circle cx="-4.3" cy="40.2" r=".6" fill="#E4E2E2" opacity=".5"/>
  </g>

  <!-- fish swimming right (medium, bottom) -->
  <g class="fish-r" style="animation-delay:-11s">
    <ellipse cx="0" cy="182" rx="10" ry="5" fill="#DC143C" opacity=".18"/>
    <polygon points="-10,182 -18,177 -18,187" fill="#DC143C" opacity=".18"/>
    <circle cx="5" cy="180.5" r="1.4" fill="#0D1117" opacity=".3"/>
    <circle cx="5.6" cy="180.2" r=".6" fill="#E4E2E2" opacity=".4"/>
  </g>

  <!-- red accent underline -->
  <rect x="270" y="110" width="310" height="3" rx="1.5" fill="#DC143C" class="line-glow"/>

  <!-- name -->
  <text x="425" y="102" text-anchor="middle"
        font-family="'Segoe UI',system-ui,-apple-system,sans-serif"
        font-weight="700" font-size="54" fill="#E4E2E2" letter-spacing="4">
    Hung
  </text>

  <!-- subtitle -->
  <text x="425" y="142" text-anchor="middle"
        font-family="'Segoe UI',system-ui,-apple-system,sans-serif"
        font-weight="400" font-size="13" fill="#8B8B8B" letter-spacing="4">
    SOFTWARE ENGINEER  &#183;  AI EXPLORER  &#183;  BUILDING COOL THINGS
  </text>

  <!-- mini tessaiga (sword accent) -->
  <g transform="translate(572,78) rotate(35)" class="sword" opacity=".3">
    <rect x="0" y="0" width="2" height="22" rx="1" fill="#DC143C"/>
    <rect x="-3" y="22" width="8" height="2.5" rx="1" fill="#FFD700"/>
    <rect x="-.5" y="24.5" width="3" height="7" rx="1" fill="#8B4513"/>
  </g>

  <!-- bottom border -->
  <rect x="0" y="197" width="850" height="3" fill="#DC143C" opacity=".5"/>
</svg>
